<svg viewBox="0 0 16 16" fill="none" xmlns="http://www.w3.org/2000/svg">
    <path d="M5.33325 13.3334C5.33325 12.9652 5.63173 12.6667 5.99992 12.6667H9.99992C10.3681 12.6667 10.6666 12.9652 10.6666 13.3334V14.0001C10.6666 15.1047 9.77115 16.0001 8.66659 16.0001H7.33325C6.22868 16.0001 5.33325 15.1047 5.33325 14.0001V13.3334Z" fill="#606060"/>
    <path d="M13.3334 5.33333C13.3334 7.01759 12.5527 8.5195 11.3334 9.49691V10C11.3334 10.7364 10.7365 11.3333 10.0001 11.3333H8.66675V7.60948L9.80482 6.4714C10.0652 6.21105 10.0652 5.78894 9.80482 5.5286C9.54447 5.26825 9.12236 5.26825 8.86201 5.5286L8.00008 6.39052L7.13815 5.5286C6.8778 5.26825 6.45569 5.26825 6.19534 5.5286C5.93499 5.78894 5.93499 6.21105 6.19534 6.4714L7.33341 7.60948V11.3333H6.00008C5.2637 11.3333 4.66675 10.7364 4.66675 10V9.49691C3.44746 8.5195 2.66675 7.01759 2.66675 5.33333C2.66675 2.38781 5.05456 0 8.00008 0C10.9456 0 13.3334 2.38781 13.3334 5.33333Z" fill="#606060"/>
</svg>
