<svg viewBox="0 0 20 20" fill="none" xmlns="http://www.w3.org/2000/svg">
    <path d="M9.23489 2.60643C9.5244 1.93555 10.4757 1.93555 10.7652 2.60643L12.5818 6.81633C12.7044 7.1004 12.9743 7.29318 13.2828 7.31701L17.9417 7.67701C18.6891 7.73477 18.9861 8.67315 18.408 9.15048L14.9044 12.0432C14.6572 12.2472 14.549 12.5749 14.626 12.886L15.7043 17.243C15.8816 17.9595 15.1087 18.5358 14.4726 18.1613L10.4228 15.7771C10.1619 15.6235 9.83817 15.6235 9.57726 15.7771L5.52748 18.1613C4.89139 18.5358 4.11845 17.9595 4.29578 17.243L5.37406 12.886C5.45105 12.5749 5.34282 12.2472 5.09569 12.0432L1.59204 9.15047C1.01391 8.67315 1.31091 7.73477 2.0584 7.67701L6.71727 7.31701C7.02575 7.29318 7.29562 7.1004 7.41821 6.81633L9.23489 2.60643Z" fill="#606060"/>
</svg>
