<svg viewBox="0 0 20 20" fill="none" xmlns="http://www.w3.org/2000/svg">
    <path d="M11.6667 12.5001C11.9029 12.5001 12.1077 12.4133 12.2813 12.2397C12.4549 12.0661 12.5417 11.8612 12.5417 11.6251C12.5417 11.389 12.4549 11.1841 12.2813 11.0105C12.1077 10.8369 11.9029 10.7501 11.6667 10.7501C11.4306 10.7501 11.2258 10.8369 11.0522 11.0105C10.8786 11.1841 10.7917 11.389 10.7917 11.6251C10.7917 11.8612 10.8786 12.0661 11.0522 12.2397C11.2258 12.4133 11.4306 12.5001 11.6667 12.5001ZM11.6667 9.83341C11.8195 9.83341 11.9619 9.77786 12.0938 9.66675C12.2258 9.55564 12.3056 9.4098 12.3334 9.22925C12.3612 9.06258 12.4202 8.9098 12.5105 8.77091C12.6008 8.63203 12.764 8.44453 13.0001 8.20841C13.4167 7.79175 13.6945 7.45494 13.8334 7.198C13.9723 6.94105 14.0417 6.63897 14.0417 6.29175C14.0417 5.66675 13.823 5.15633 13.3855 4.7605C12.948 4.36466 12.3751 4.16675 11.6667 4.16675C11.2084 4.16675 10.7917 4.27091 10.4167 4.47925C10.0417 4.68758 9.74314 4.98619 9.52091 5.37508C9.43758 5.51397 9.43064 5.6598 9.50008 5.81258C9.56953 5.96536 9.68758 6.07647 9.85425 6.14591C10.007 6.21536 10.1563 6.2223 10.3022 6.16675C10.448 6.11119 10.5695 6.01397 10.6667 5.87508C10.7917 5.69453 10.9376 5.55911 11.1042 5.46883C11.2709 5.37855 11.4584 5.33341 11.6667 5.33341C12.0001 5.33341 12.2709 5.42716 12.4792 5.61466C12.6876 5.80216 12.7917 6.05564 12.7917 6.37508C12.7917 6.56953 12.7362 6.75355 12.6251 6.92716C12.514 7.10078 12.3195 7.31953 12.0417 7.58341C11.639 7.93064 11.382 8.198 11.2709 8.3855C11.1598 8.573 11.0904 8.8473 11.0626 9.20841C11.0487 9.37508 11.1008 9.52091 11.2188 9.64591C11.3369 9.77091 11.4862 9.83341 11.6667 9.83341ZM6.66675 15.0001C6.20841 15.0001 5.81605 14.8369 5.48966 14.5105C5.16328 14.1841 5.00008 13.7917 5.00008 13.3334V3.33341C5.00008 2.87508 5.16328 2.48272 5.48966 2.15633C5.81605 1.82994 6.20841 1.66675 6.66675 1.66675H16.6667C17.1251 1.66675 17.5174 1.82994 17.8438 2.15633C18.1702 2.48272 18.3334 2.87508 18.3334 3.33341V13.3334C18.3334 13.7917 18.1702 14.1841 17.8438 14.5105C17.5174 14.8369 17.1251 15.0001 16.6667 15.0001H6.66675ZM3.33341 18.3334C2.87508 18.3334 2.48272 18.1702 2.15633 17.8438C1.82994 17.5174 1.66675 17.1251 1.66675 16.6667V5.83341C1.66675 5.5973 1.74661 5.39939 1.90633 5.23966C2.06605 5.07994 2.26397 5.00008 2.50008 5.00008C2.73619 5.00008 2.93411 5.07994 3.09383 5.23966C3.25355 5.39939 3.33341 5.5973 3.33341 5.83341V16.6667H14.1667C14.4029 16.6667 14.6008 16.7466 14.7605 16.9063C14.9202 17.0661 15.0001 17.264 15.0001 17.5001C15.0001 17.7362 14.9202 17.9341 14.7605 18.0938C14.6008 18.2536 14.4029 18.3334 14.1667 18.3334H3.33341Z" fill="#606060"/>
</svg>
