<svg viewBox="0 0 20 20" fill="none" xmlns="http://www.w3.org/2000/svg">
    <path fill-rule="evenodd" clip-rule="evenodd" d="M2.33662 4.16675C1.66675 5.327 1.66675 6.8847 1.66675 10.0001C1.66675 13.1155 1.66675 14.6732 2.33662 15.8334C2.77546 16.5935 3.40665 17.2247 4.16675 17.6635C5.327 18.3334 6.8847 18.3334 10.0001 18.3334C13.1155 18.3334 14.6732 18.3334 15.8334 17.6635C16.5935 17.2247 17.2247 16.5935 17.6635 15.8334C18.3334 14.6732 18.3334 13.1155 18.3334 10.0001C18.3334 6.8847 18.3334 5.327 17.6635 4.16675C17.2247 3.40665 16.5935 2.77546 15.8334 2.33662C14.6732 1.66675 13.1155 1.66675 10.0001 1.66675C6.8847 1.66675 5.327 1.66675 4.16675 2.33662C3.40665 2.77546 2.77546 3.40665 2.33662 4.16675ZM6.25992 10.2586C6.0423 9.60574 6.14917 8.67264 6.88984 7.7468C7.29623 7.23883 7.76951 6.84422 8.3097 6.56298C8.47501 6.47691 8.54952 6.27469 8.46438 6.10891C8.38549 5.95528 8.19855 5.89125 8.04528 5.97083C7.07067 6.47687 6.33119 7.12135 5.82685 7.90428C5.27567 8.75993 5.00008 9.72843 5.00008 10.8098C5.00008 12.4752 5.77394 13.9594 7.45678 13.9594C8.19623 13.9594 8.85894 13.5805 9.23631 12.9515C9.68491 12.2039 9.62441 11.0493 8.92134 10.3925C8.22534 9.74227 7.08236 9.60551 6.25992 10.2586ZM11.7402 10.2586C11.5226 9.60574 11.6295 8.67264 12.3702 7.7468C12.7765 7.23883 13.2498 6.84422 13.79 6.56297C13.9553 6.47691 14.0298 6.27469 13.9447 6.1089C13.8658 5.95528 13.6789 5.89125 13.5256 5.97083C12.551 6.47687 11.8115 7.12135 11.3072 7.90428C10.756 8.75993 10.4804 9.72843 10.4804 10.8098C10.4804 12.4752 11.2543 13.9594 12.9371 13.9594C14.0764 13.9594 15.0001 13.1 15.0001 11.8964C15.0001 10.5875 14.0694 9.83342 12.9371 9.83342C12.5066 9.83342 12.1077 9.97515 11.7402 10.2586Z" fill="#606060"/>
</svg>
