<svg width="17" height="18" viewBox="0 0 17 18" fill="none" xmlns="http://www.w3.org/2000/svg">
    <path d="M1.51545 17.335C1.0987 17.335 0.741941 17.1867 0.445165 16.8899C0.148388 16.5931 0 16.2363 0 15.8196V2.18049C0 1.76374 0.148388 1.40698 0.445165 1.1102C0.741941 0.813427 1.0987 0.665039 1.51545 0.665039H15.1545C15.5713 0.665039 15.9281 0.813427 16.2248 1.1102C16.5216 1.40698 16.67 1.76374 16.67 2.18049V15.8196C16.67 16.2363 16.5216 16.5931 16.2248 16.8899C15.9281 17.1867 15.5713 17.335 15.1545 17.335H1.51545ZM11.8205 13.5464H10.6082C10.3935 13.5464 10.2135 13.619 10.0683 13.7642C9.92307 13.9095 9.85045 14.0894 9.85045 14.3041C9.85045 14.5188 9.92307 14.6988 10.0683 14.844C10.2135 14.9892 10.3935 15.0619 10.6082 15.0619H13.6391C13.8538 15.0619 14.0337 14.9892 14.179 14.844C14.3242 14.6988 14.3968 14.5188 14.3968 14.3041V11.2732C14.3968 11.0585 14.3242 10.8786 14.179 10.7333C14.0337 10.5881 13.8538 10.5155 13.6391 10.5155C13.4244 10.5155 13.2444 10.5881 13.0992 10.7333C12.954 10.8786 12.8814 11.0585 12.8814 11.2732V12.4477L10.4945 10.0609L9.41476 11.1406L11.8205 13.5464ZM12.8814 5.51449V6.72686C12.8814 6.94155 12.954 7.12151 13.0992 7.26674C13.2444 7.41197 13.4244 7.48458 13.6391 7.48458C13.8538 7.48458 14.0337 7.41197 14.179 7.26674C14.3242 7.12151 14.3968 6.94155 14.3968 6.72686V3.69595C14.3968 3.48126 14.3242 3.3013 14.179 3.15607C14.0337 3.01084 13.8538 2.93822 13.6391 2.93822H10.6082C10.3935 2.93822 10.2135 3.01084 10.0683 3.15607C9.92307 3.3013 9.85045 3.48126 9.85045 3.69595C9.85045 3.91064 9.92307 4.0906 10.0683 4.23583C10.2135 4.38106 10.3935 4.45368 10.6082 4.45368H11.8205L2.79696 13.4773C2.66246 13.6118 2.59522 13.7863 2.59522 14.001C2.59522 14.2157 2.66467 14.3925 2.80359 14.5314C2.94251 14.6704 3.11931 14.7398 3.334 14.7398C3.54869 14.7398 3.72549 14.6704 3.86441 14.5314L12.8814 5.51449ZM6.19442 7.92028L7.25524 6.85946L3.86441 3.46863C3.72549 3.32971 3.54948 3.26026 3.33637 3.26026C3.12326 3.26026 2.94566 3.32971 2.80359 3.46863C2.66467 3.60755 2.59522 3.78435 2.59522 3.99904C2.59522 4.21373 2.66467 4.39053 2.80359 4.52945L6.19442 7.92028Z" fill="#606060"/>
</svg>
