<svg viewBox="0 0 20 20" fill="none" xmlns="http://www.w3.org/2000/svg">
    <path d="M17.5 13.3334V8.41675L10.7917 12.0626C10.5417 12.2015 10.2778 12.2709 10 12.2709C9.72222 12.2709 9.45833 12.2015 9.20833 12.0626L2.16667 8.22925C2.01389 8.14591 1.90625 8.04175 1.84375 7.91675C1.78125 7.79175 1.75 7.65286 1.75 7.50008C1.75 7.3473 1.78125 7.20842 1.84375 7.08342C1.90625 6.95842 2.01389 6.85425 2.16667 6.77092L9.20833 2.93758C9.33333 2.86814 9.4618 2.81605 9.59375 2.78133C9.72569 2.74661 9.86111 2.72925 10 2.72925C10.1389 2.72925 10.2743 2.74661 10.4062 2.78133C10.5382 2.81605 10.6667 2.86814 10.7917 2.93758L18.7292 7.27092C18.8681 7.34036 18.9757 7.44105 19.0521 7.573C19.1285 7.70494 19.1667 7.8473 19.1667 8.00008V13.3334C19.1667 13.5695 19.0868 13.7674 18.9271 13.9272C18.7674 14.0869 18.5694 14.1667 18.3333 14.1667C18.0972 14.1667 17.8993 14.0869 17.7396 13.9272C17.5799 13.7674 17.5 13.5695 17.5 13.3334ZM9.20833 17.0626L5.04167 14.8126C4.76389 14.6598 4.54861 14.4515 4.39583 14.1876C4.24306 13.9237 4.16667 13.639 4.16667 13.3334V10.1667L9.20833 12.8959C9.45833 13.0348 9.72222 13.1042 10 13.1042C10.2778 13.1042 10.5417 13.0348 10.7917 12.8959L15.8333 10.1667V13.3334C15.8333 13.639 15.7569 13.9237 15.6042 14.1876C15.4514 14.4515 15.2361 14.6598 14.9583 14.8126L10.7917 17.0626C10.6667 17.132 10.5382 17.1841 10.4062 17.2188C10.2743 17.2536 10.1389 17.2709 10 17.2709C9.86111 17.2709 9.72569 17.2536 9.59375 17.2188C9.4618 17.1841 9.33333 17.132 9.20833 17.0626Z" fill="#606060"/>
</svg>
