<svg viewBox="0 0 20 20" fill="none" xmlns="http://www.w3.org/2000/svg">
    <path d="M5.83341 18.3333C6.75389 18.3333 7.50008 17.5871 7.50008 16.6667C7.50008 15.7462 6.75389 15 5.83341 15C4.91294 15 4.16675 15.7462 4.16675 16.6667C4.16675 17.5871 4.91294 18.3333 5.83341 18.3333Z" fill="#606060"/>
    <path d="M14.1667 18.3333C15.0872 18.3333 15.8334 17.5871 15.8334 16.6667C15.8334 15.7462 15.0872 15 14.1667 15C13.2463 15 12.5001 15.7462 12.5001 16.6667C12.5001 17.5871 13.2463 18.3333 14.1667 18.3333Z" fill="#606060"/>
    <path d="M2.8727 1.75466C2.46105 1.54884 1.96049 1.71569 1.75466 2.12734C1.54884 2.53899 1.71569 3.03955 2.12734 3.24538L2.9636 3.6635C3.22173 3.79257 3.3947 4.046 3.42083 4.33341L4.03231 11.0597C4.14937 12.3474 5.22904 13.3334 6.52204 13.3334H13.7429C14.8591 13.3334 15.84 12.5934 16.1467 11.5202L17.1645 7.95789C17.4686 6.8932 16.6692 5.83335 15.5619 5.83335H5.23073L5.08065 4.18252C5.00227 3.32029 4.48334 2.55999 3.70895 2.17279L2.8727 1.75466Z" fill="#606060"/>
</svg>
